<svg width="24" height="24" viewBox="0 0 24 24" fill="none" xmlns="http://www.w3.org/2000/svg">
<path fill-rule="evenodd" clip-rule="evenodd" d="M14 7C14 5.89543 13.1046 5 12 5H4C2.89543 5 2 5.89543 2 7V17C2 18.1046 2.89543 19 4 19H12C13.1046 19 14 18.1046 14 17V7ZM16 16.3874L20.6838 17.9487C20.9887 18.0503 21.3239 17.9992 21.5847 17.8112C21.8455 17.6233 22 17.3214 22 17V7C22 6.67856 21.8455 6.37671 21.5847 6.18876C21.3239 6.00081 20.9887 5.94967 20.6838 6.05132L16 7.61257V16.3874Z" fill="#FE0000"/>
</svg>
